<svg xmlns="http://www.w3.org/2000/svg" viewBox="0 0 516 151" enable-background="new 0 0 516 151"><g fill="#fff"><path d="M28.8 59.1h-10.6v38.4h-9.1v-38.4h-9.1v-7.4h9.1v-9.6c0-2.7.3-5.2.9-7.5.6-2.3 1.6-4.3 3-5.9 1.4-1.7 3.2-3 5.3-4 2.2-1 4.8-1.5 7.9-1.5 2.2 0 4.1.2 5.7.7l-1.1 7.8c-.7-.2-1.4-.4-2.1-.5-.7-.1-1.5-.2-2.4-.2-1.7 0-3.1.3-4.2.9-1.1.6-1.9 1.4-2.5 2.5-.6 1-1 2.2-1.2 3.5-.2 1.3-.3 2.7-.3 4.1v9.6h10.6v7.5zm19.6-21.1c0 1.7-.6 3.1-1.8 4.2-1.2 1.1-2.6 1.6-4.3 1.6-1.7 0-3.1-.6-4.2-1.7-1.2-1.1-1.7-2.5-1.7-4.1 0-1.7.6-3.1 1.7-4.2 1.2-1.1 2.6-1.7 4.2-1.7 1.7 0 3.1.6 4.3 1.7 1.2 1.1 1.8 2.5 1.8 4.2z"/><rect x="37.8" y="51.7" width="9.1" height="45.8"/><path d="M63.7 51.7c.1 1.2.2 2.5.3 3.9.1 1.5.1 2.7.1 3.6h.3c.6-1.2 1.4-2.4 2.4-3.4 1-1.1 2.1-2 3.4-2.8 1.3-.8 2.7-1.4 4.3-1.9 1.5-.5 3.2-.7 4.8-.7 3 0 5.5.5 7.6 1.5 2.1 1 3.9 2.3 5.3 4 1.4 1.7 2.5 3.6 3.1 5.9.7 2.3 1 4.7 1 7.3v28.4h-9.1v-25.4c0-1.9-.1-3.6-.4-5.3-.3-1.7-.8-3.2-1.6-4.4-.8-1.3-1.8-2.3-3.2-3.1-1.4-.8-3.1-1.2-5.2-1.2-3.6 0-6.6 1.4-8.9 4.1-2.3 2.7-3.4 6.4-3.4 11v24.4h-9.1v-36c0-1.2 0-2.8-.1-4.7-.1-1.9-.2-3.6-.3-5.1h8.7zm77.6 38.6c-1.7 2.8-4.1 4.9-7.1 6.3-3 1.5-6.1 2.2-9.4 2.2-3.5 0-6.7-.6-9.6-1.9-2.8-1.3-5.3-3-7.3-5.2s-3.5-4.8-4.6-7.7c-1.1-3-1.6-6.1-1.6-9.5 0-3.4.5-6.5 1.6-9.4 1.1-2.9 2.7-5.5 4.7-7.7s4.5-3.9 7.3-5.1c2.8-1.2 6-1.8 9.4-1.8 3.7 0 7 .8 9.8 2.4 2.8 1.6 5 3.5 6.6 5.8h.2v-34.3h9.1v73.1h-8.8v-7.3h-.3zm-30.1-15.7c0 2.1.3 4.2 1 6.2.6 2 1.6 3.8 2.9 5.3 1.3 1.5 2.9 2.8 4.7 3.7 1.9.9 4.1 1.4 6.6 1.4 2.3 0 4.4-.4 6.3-1.3 1.9-.9 3.5-2.1 4.9-3.6 1.4-1.5 2.4-3.3 3.1-5.3.7-2 1.1-4.1 1.1-6.3s-.4-4.3-1.1-6.3c-.7-2-1.8-3.8-3.1-5.3-1.4-1.5-3-2.8-4.9-3.7-1.9-.9-4-1.4-6.3-1.4-2.5 0-4.7.5-6.6 1.4-1.9.9-3.5 2.1-4.7 3.7-1.3 1.5-2.3 3.3-2.9 5.3-.7 2-1 4.1-1 6.2zm74.6-21.6c2.5-1.7 5.6-2.6 9-2.6 3.1 0 5.9.7 8.4 2.1 2.5 1.4 4.4 3.8 5.9 7.1 1.5-3 3.7-5.2 6.5-6.8 2.8-1.6 5.8-2.4 9.1-2.4 3 0 5.5.5 7.6 1.5 2.1 1 3.9 2.3 5.3 4 1.4 1.7 2.5 3.6 3.1 5.9.7 2.3 1 4.7 1 7.3v28.4h-9.1v-25.4c0-1.9-.2-3.6-.5-5.3-.3-1.7-.9-3.2-1.6-4.4-.8-1.3-1.8-2.3-3.1-3.1-1.3-.8-2.9-1.2-4.9-1.2-2.1 0-3.8.4-5.3 1.3s-2.7 2-3.6 3.4c-.9 1.4-1.6 2.9-2 4.7-.4 1.7-.6 3.5-.6 5.3v24.8h-9.1v-27.3c0-1.8-.2-3.4-.5-4.9-.3-1.5-.9-2.8-1.6-3.8-.8-1.1-1.8-1.9-3-2.5-1.2-.6-2.7-.9-4.5-.9-3.4 0-6.1 1.4-8.4 4.1-2.2 2.7-3.3 6.4-3.3 11v24.4h-9.1v-36c0-1.2 0-2.8-.1-4.7-.1-1.9-.2-3.6-.3-5.1h8.6c.1 1.2.2 2.5.3 3.9.1 1.5.1 2.7.1 3.6h.3c1-2.6 2.9-4.7 5.4-6.4zm83.1 34.7h.2l12.7-36h9.7l-22.2 56.7c-.8 1.9-1.6 3.7-2.5 5.2-.9 1.5-2 2.8-3.2 3.9-1.2 1.1-2.7 1.9-4.3 2.5-1.6.6-3.6.9-5.9.9-1 0-2 0-2.9-.1-1-.1-2-.3-3-.5l.9-8c1.5.5 3.1.8 4.5.8 2.4 0 4.2-.7 5.3-2 1.2-1.3 2.2-3.2 3.2-5.7l2.9-7.6-19.6-45.8h10.2l14 35.7zm46.7 33.1h-9.1v-69.1h8.9v7.2h.3c1.5-2.4 3.6-4.5 6.5-6 2.9-1.6 6.2-2.4 10-2.4 3.4 0 6.5.6 9.3 1.8 2.8 1.2 5.2 2.9 7.2 5.1 2 2.2 3.6 4.8 4.7 7.7 1.1 2.9 1.6 6.1 1.6 9.4 0 3.4-.5 6.5-1.6 9.5s-2.6 5.5-4.6 7.7c-2 2.2-4.4 3.9-7.2 5.2-2.8 1.3-6 1.9-9.6 1.9-3.3 0-6.4-.7-9.3-2.1-2.9-1.4-5.2-3.4-6.9-6h-.3v30.1zm30.2-46.3c0-2.1-.3-4.2-1-6.2-.6-2-1.6-3.8-2.9-5.3-1.3-1.5-2.9-2.8-4.8-3.7-1.9-.9-4.1-1.4-6.6-1.4-2.3 0-4.4.5-6.3 1.4-1.9.9-3.5 2.1-4.9 3.7-1.4 1.5-2.4 3.3-3.1 5.3-.7 2-1.1 4.1-1.1 6.3s.4 4.3 1.1 6.3c.7 2 1.8 3.8 3.1 5.3 1.4 1.5 3 2.7 4.9 3.6 1.9.9 4 1.4 6.3 1.4 2.5 0 4.7-.5 6.6-1.4 1.9-.9 3.5-2.2 4.8-3.7 1.3-1.5 2.3-3.3 2.9-5.3.7-2.1 1-4.1 1-6.3zm45.5-6.6c0-3.4-1-5.9-3.1-7.6-2.1-1.6-4.8-2.5-8.2-2.5-2.6 0-5 .5-7.3 1.5s-4.2 2.3-5.8 3.8l-4.8-5.8c2.3-2.1 5-3.8 8.3-5 3.3-1.2 6.8-1.8 10.5-1.8 3.3 0 6.1.5 8.6 1.4 2.4.9 4.4 2.2 5.9 3.8 1.5 1.6 2.7 3.5 3.5 5.7.8 2.2 1.2 4.5 1.2 7.1v20c0 1.5 0 3.2.1 4.9.1 1.7.3 3.1.5 4.2h-8.2c-.5-2.2-.8-4.4-.8-6.6h-.3c-1.7 2.5-3.8 4.4-6.3 5.7-2.5 1.4-5.6 2-9 2-1.8 0-3.7-.2-5.7-.7-2-.5-3.8-1.3-5.4-2.4-1.6-1.1-3-2.5-4-4.4-1.1-1.8-1.6-4-1.6-6.7 0-3.5.9-6.2 2.8-8.3 1.9-2 4.3-3.6 7.4-4.6 3-1.1 6.4-1.8 10.3-2.1 3.8-.3 7.6-.5 11.5-.5v-1.1zm-2.2 7.8c-2.3 0-4.6.1-7 .3-2.4.2-4.6.6-6.6 1.2s-3.6 1.5-4.9 2.6c-1.3 1.2-1.9 2.7-1.9 4.6 0 1.4.3 2.5.8 3.4.5.9 1.3 1.6 2.2 2.2.9.6 1.9 1 3 1.2 1.1.2 2.2.3 3.4.3 4.3 0 7.5-1.3 9.8-3.8 2.3-2.5 3.4-5.8 3.4-9.6v-2.4h-2.2zm46.9-12.4c-1-1.7-2.5-3-4.4-4.1-1.9-1.1-4-1.6-6.3-1.6-1 0-2.1.1-3.1.3-1 .2-2 .6-2.8 1.1-.8.5-1.5 1.1-1.9 1.8-.5.7-.7 1.7-.7 2.8 0 1.9.9 3.4 2.6 4.3 1.7.9 4.4 1.8 7.8 2.6 2.2.5 4.2 1.1 6.1 1.8 1.9.7 3.5 1.6 4.9 2.7 1.4 1.1 2.5 2.3 3.2 3.8.8 1.5 1.2 3.2 1.2 5.2 0 2.7-.5 5-1.5 6.9-1 1.9-2.4 3.4-4.1 4.6-1.7 1.2-3.7 2-5.9 2.6-2.2.5-4.4.8-6.8.8-3.5 0-6.9-.7-10.2-2-3.3-1.4-6.1-3.4-8.3-6.2l6.5-5.5c1.2 1.8 2.9 3.3 5.1 4.5 2.2 1.2 4.5 1.8 7.1 1.8 1.2 0 2.3-.1 3.3-.3 1.1-.2 2-.6 2.9-1.1.9-.5 1.6-1.2 2.1-2s.8-1.9.8-3.2c0-2.1-1-3.7-3-4.7s-5-2-8.9-2.9c-1.5-.4-3.1-.9-4.7-1.4-1.6-.5-3-1.3-4.3-2.3-1.3-1-2.3-2.2-3.1-3.6-.8-1.5-1.2-3.2-1.2-5.4 0-2.4.5-4.6 1.5-6.3 1-1.8 2.3-3.2 3.9-4.4 1.6-1.1 3.4-2 5.5-2.5s4.2-.8 6.4-.8c3.3 0 6.5.6 9.5 1.9 3.1 1.3 5.4 3.2 7.1 5.6l-6.3 5.2zm40.6-4.2h-12.2v23.9c0 2.8.5 4.7 1.5 5.9 1 1.2 2.7 1.8 4.9 1.8.8 0 1.7-.1 2.7-.3 1-.2 1.8-.4 2.6-.8l.3 7.4c-1.1.4-2.3.7-3.6.9-1.3.2-2.7.3-4.1.3-4.3 0-7.6-1.2-9.9-3.6-2.3-2.4-3.4-6-3.4-10.7v-24.8h-8.8v-7.4h8.8v-13.2h9v13.2h12.2v7.4z"/></g><path d="M414.9 118.7c-2.2-1.4-4.8-2.2-7.5-2.2-4.7 0-9.1 2.4-11.7 6.4-2 3.1-2.7 6.8-1.9 10.4.8 3.6 2.9 6.7 6 8.7 2.2 1.4 4.8 2.2 7.5 2.2 4.7 0 9.1-2.4 11.7-6.4 4.2-6.4 2.4-14.9-4.1-19.1zm41.8 10.3c-1.9-1.2-4.1-1.9-6.4-1.9-4.1 0-7.8 2-10 5.4-3.5 5.5-1.9 12.8 3.6 16.4 1.9 1.2 4.1 1.9 6.4 1.9 4.1 0 7.8-2 10-5.4 1.7-2.7 2.3-5.8 1.6-8.9-.7-3.2-2.5-5.8-5.2-7.5zm35.8-15.9c-1.8-1.1-3.8-1.7-5.9-1.7-3.8 0-7.2 1.9-9.2 5-1.6 2.5-2.1 5.4-1.5 8.3.6 2.9 2.3 5.3 4.8 6.9 1.8 1.1 3.8 1.7 5.9 1.7 3.8 0 7.2-1.9 9.2-5 1.6-2.5 2.1-5.4 1.5-8.3-.6-2.9-2.3-5.3-4.8-6.9zm23.3-25.6c-.6-2.6-2.1-4.8-4.3-6.2-1.6-1-3.4-1.6-5.3-1.6-3.4 0-6.5 1.7-8.3 4.5-1.4 2.2-1.9 4.8-1.3 7.4.6 2.6 2.1 4.8 4.3 6.2 1.6 1 3.4 1.6 5.3 1.6 3.4 0 6.5-1.7 8.3-4.5 1.4-2.2 1.9-4.9 1.3-7.4zm-16.2-28c1.5 1 3.3 1.5 5.2 1.5 3.3 0 6.3-1.6 8-4.4 2.8-4.4 1.6-10.3-2.9-13.2-1.5-1-3.3-1.5-5.2-1.5-3.3 0-6.3 1.6-8 4.4-2.8 4.5-1.6 10.4 2.9 13.2zm-21.7-30.6c1.5.9 3.1 1.4 4.8 1.4 3.1 0 5.9-1.5 7.6-4.1 1.3-2 1.7-4.4 1.2-6.8-.5-2.3-1.9-4.3-3.9-5.6-1.5-.9-3.1-1.4-4.8-1.4-3.1 0-5.9 1.5-7.6 4.1-2.6 4.2-1.4 9.8 2.7 12.4zm-32.3-14.5c1.3.8 2.7 1.2 4.2 1.2 2.7 0 5.1-1.3 6.6-3.6 1.1-1.8 1.5-3.8 1.1-5.9-.4-2-1.7-3.8-3.4-4.9-1.3-.8-2.7-1.2-4.2-1.2-2.7 0-5.1 1.3-6.6 3.6-2.3 3.6-1.3 8.5 2.3 10.8zm-25.4-8.3c-1.2-.8-2.6-1.2-4-1.2-2.6 0-4.9 1.3-6.3 3.4-1.1 1.7-1.4 3.7-1 5.6.4 2 1.6 3.6 3.3 4.7 1.2.8 2.6 1.2 4 1.2 2.6 0 4.9-1.3 6.3-3.4 2.2-3.5 1.2-8.1-2.3-10.3zm-23.8 28.4c1.9-3 1-6.9-1.9-8.8-1-.7-2.2-1-3.4-1-2.2 0-4.2 1.1-5.4 2.9-.9 1.4-1.2 3.1-.9 4.8.4 1.7 1.4 3.1 2.8 4 1 .7 2.2 1 3.5 1 2.1 0 4.1-1.1 5.3-2.9z" fill="#fff"/></svg>
